<svg width="28" height="25" viewBox="0 0 28 25" fill="none" xmlns="http://www.w3.org/2000/svg">
<path d="M26.7995 10.96L20.6662 6.02667V2.66667C20.6988 1.99326 20.4631 1.33438 20.0107 0.834489C19.5583 0.334603 18.9261 0.0345074 18.2528 0H3.05282C2.38424 0.0412795 1.75885 0.34431 1.31212 0.843445C0.865397 1.34258 0.633314 1.99762 0.666151 2.66667V16C0.653776 16.5295 0.799343 17.0506 1.0843 17.4971C1.36925 17.9435 1.78068 18.295 2.26615 18.5067C2.0206 19.1074 1.9249 19.7589 1.98731 20.4048C2.04972 21.0508 2.26836 21.6719 2.62438 22.2145C2.9804 22.7571 3.46309 23.2049 4.03082 23.5193C4.59854 23.8338 5.23424 24.0053 5.88307 24.0192C6.5319 24.0331 7.17437 23.889 7.75504 23.5991C8.33571 23.3093 8.83715 22.8826 9.21608 22.3557C9.59502 21.8289 9.84007 21.2177 9.93009 20.575C10.0201 19.9323 9.95241 19.2774 9.73282 18.6667H18.2128C17.9935 19.2708 17.9231 19.919 18.0074 20.5561C18.0917 21.1933 18.3283 21.8008 18.6972 22.3271C19.0661 22.8535 19.5564 23.2832 20.1266 23.5798C20.6968 23.8765 21.3301 24.0314 21.9728 24.0314C22.6156 24.0314 23.2488 23.8765 23.819 23.5798C24.3892 23.2832 24.8795 22.8535 25.2484 22.3271C25.6173 21.8008 25.8539 21.1933 25.9382 20.5561C26.0226 19.919 25.9521 19.2708 25.7328 18.6667H25.9995C26.3531 18.6667 26.6922 18.5262 26.9423 18.2761C27.1923 18.0261 27.3328 17.687 27.3328 17.3333V12C27.3287 11.7975 27.2786 11.5986 27.1862 11.4184C27.0938 11.2382 26.9615 11.0815 26.7995 10.96ZM24.6662 12.64V16H20.6662V9.44L24.6662 12.64ZM7.33282 20C7.33282 20.2637 7.25462 20.5215 7.10811 20.7408C6.9616 20.96 6.75336 21.1309 6.50973 21.2318C6.26609 21.3328 5.99801 21.3592 5.73936 21.3077C5.48072 21.2563 5.24315 21.1293 5.05668 20.9428C4.87021 20.7563 4.74322 20.5188 4.69177 20.2601C4.64032 20.0015 4.66673 19.7334 4.76764 19.4898C4.86856 19.2461 5.03946 19.0379 5.25872 18.8914C5.47799 18.7449 5.73578 18.6667 5.99948 18.6667C6.35311 18.6667 6.69224 18.8071 6.94229 19.0572C7.19234 19.3072 7.33282 19.6464 7.33282 20ZM13.9995 16H3.33282V2.66667H17.9995V16H13.9995ZM23.3328 20C23.3328 20.2637 23.2546 20.5215 23.1081 20.7408C22.9616 20.96 22.7534 21.1309 22.5097 21.2318C22.2661 21.3328 21.998 21.3592 21.7394 21.3077C21.4807 21.2563 21.2431 21.1293 21.0567 20.9428C20.8702 20.7563 20.7432 20.5188 20.6918 20.2601C20.6403 20.0015 20.6667 19.7334 20.7676 19.4898C20.8686 19.2461 21.0395 19.0379 21.2587 18.8914C21.478 18.7449 21.7358 18.6667 21.9995 18.6667C22.3531 18.6667 22.6922 18.8071 22.9423 19.0572C23.1923 19.3072 23.3328 19.6464 23.3328 20Z" fill="currentColor"/>
</svg>
