<svg width="24" height="24" viewBox="0 0 24 24" fill="none" xmlns="http://www.w3.org/2000/svg">
<path d="M8.66665 20H4.70841C4.52053 20 4.34034 19.9254 4.20749 19.7925C4.07464 19.6597 4 19.4795 4 19.2916V15.3334C3.99968 15.2414 4.0175 15.1502 4.05245 15.0651C4.0874 14.98 4.13879 14.9027 4.20367 14.8375L14.8298 4.21134C14.8957 4.1444 14.9743 4.09125 15.0609 4.05497C15.1476 4.01868 15.2406 4 15.3345 4C15.4285 4 15.5215 4.01868 15.6081 4.05497C15.6948 4.09125 15.7734 4.1444 15.8393 4.21134L19.7887 8.16072C19.8556 8.22663 19.9088 8.3052 19.945 8.39186C19.9813 8.47851 20 8.57152 20 8.66546C20 8.7594 19.9813 8.8524 19.945 8.93906C19.9088 9.02571 19.8556 9.10428 19.7887 9.1702L9.16253 19.7963C9.09733 19.8612 9.01996 19.9126 8.93487 19.9475C8.84978 19.9825 8.75863 20.0003 8.66665 20V20Z" stroke="currentColor" stroke-width="1.5" stroke-linecap="round" stroke-linejoin="round"/>
<path d="M13 6L18 11" stroke="currentColor" stroke-width="1.5" stroke-linecap="round" stroke-linejoin="round"/>
</svg>
