<svg width="24" height="24" viewBox="0 0 24 24" fill="none" xmlns="http://www.w3.org/2000/svg">
<path d="M16.5 12H21" stroke="currentColor" stroke-width="1.5" stroke-linecap="round" stroke-linejoin="round"/>
<path d="M18.75 9.75V14.25" stroke="currentColor" stroke-width="1.5" stroke-linecap="round" stroke-linejoin="round"/>
<path d="M3.51103 6.75H14.489C14.5881 6.75003 14.6851 6.77683 14.7682 6.82713C14.8512 6.87743 14.9167 6.94907 14.9567 7.03331C14.9966 7.11755 15.0093 7.21076 14.9932 7.30158C14.9771 7.3924 14.9329 7.47692 14.866 7.54483L10.6678 11.8334C10.5804 11.9202 10.5324 12.0349 10.5336 12.1537V15.5109C10.5344 15.5898 10.5137 15.6676 10.4735 15.737C10.4333 15.8065 10.3748 15.8654 10.3035 15.9083L8.25877 17.1718C8.18206 17.2187 8.09317 17.2455 8.00142 17.2495C7.90968 17.2535 7.81847 17.2344 7.7374 17.1944C7.65632 17.1543 7.58837 17.0947 7.54068 17.0218C7.493 16.949 7.46734 16.8655 7.46641 16.7803V12.1537C7.46764 12.0349 7.4196 11.9202 7.33222 11.8334L3.13403 7.54483C3.0671 7.47692 3.02289 7.3924 3.00678 7.30158C2.99068 7.21076 3.00339 7.11755 3.04334 7.03331C3.0833 6.94907 3.14879 6.87743 3.23183 6.82713C3.31487 6.77683 3.41188 6.75003 3.51103 6.75V6.75Z" stroke="currentColor" stroke-width="1.5" stroke-linecap="round" stroke-linejoin="round"/>
</svg>
