<svg width="24" height="24" viewBox="0 0 24 24" fill="none" xmlns="http://www.w3.org/2000/svg">
<line x1="2.02586" y1="20.9397" x2="21.9397" y2="1.97414" stroke="currentColor" stroke-width="1.5" stroke-linecap="round"/>
<path d="M16.2857 5.7237C15.8715 5.7237 15.5357 6.05949 15.5357 6.4737C15.5357 6.88791 15.8715 7.2237 16.2857 7.2237V5.7237ZM20.0893 6.4737V7.22372L20.0943 7.22368L20.0893 6.4737ZM20.75 6.93423L20.0495 7.20219L20.0507 7.20537L20.75 6.93423ZM22 10.1579H22.75C22.75 10.0652 22.7328 9.97323 22.6993 9.88676L22 10.1579ZM2 11.6184C1.58579 11.6184 1.25 11.9542 1.25 12.3684C1.25 12.7826 1.58579 13.1184 2 13.1184V11.6184ZM16.2857 13.1184C16.6999 13.1184 17.0357 12.7826 17.0357 12.3684C17.0357 11.9542 16.6999 11.6184 16.2857 11.6184V13.1184ZM2 16.0526H1.25H2ZM2.71429 5V5.75V5ZM16.2857 5H17.0357C17.0357 4.58579 16.6999 4.25 16.2857 4.25V5ZM15.5357 14.8737C15.5357 15.2879 15.8715 15.6237 16.2857 15.6237C16.6999 15.6237 17.0357 15.2879 17.0357 14.8737H15.5357ZM16.2857 9.40789C15.8715 9.40789 15.5357 9.74368 15.5357 10.1579C15.5357 10.5721 15.8715 10.9079 16.2857 10.9079L16.2857 9.40789ZM16.2857 7.2237H20.0893V5.7237H16.2857V7.2237ZM20.0943 7.22368C20.0799 7.22378 20.0679 7.21923 20.0599 7.21369L20.9176 5.98312C20.6739 5.8132 20.3833 5.72171 20.0842 5.72372L20.0943 7.22368ZM20.0599 7.21369C20.0523 7.20838 20.05 7.20343 20.0495 7.20219L21.4505 6.66626C21.3455 6.3919 21.1611 6.15282 20.9176 5.98312L20.0599 7.21369ZM20.0507 7.20537L21.3007 10.4291L22.6993 9.88676L21.4493 6.66308L20.0507 7.20537ZM2 13.1184H16.2857V11.6184H2V13.1184ZM18.75 16.7895C18.75 17.6183 18.1046 18.25 17.3571 18.25V19.75C18.9766 19.75 20.25 18.4024 20.25 16.7895H18.75ZM17.3571 18.25C16.6097 18.25 15.9643 17.6183 15.9643 16.7895H14.4643C14.4643 18.4024 15.7377 19.75 17.3571 19.75V18.25ZM15.9643 16.7895C15.9643 15.9607 16.6097 15.3289 17.3571 15.3289V13.8289C15.7377 13.8289 14.4643 15.1766 14.4643 16.7895H15.9643ZM17.3571 15.3289C18.1046 15.3289 18.75 15.9607 18.75 16.7895H20.25C20.25 15.1766 18.9766 13.8289 17.3571 13.8289V15.3289ZM8.03571 16.7895C8.03571 17.6183 7.3903 18.25 6.64286 18.25V19.75C8.26235 19.75 9.53571 18.4024 9.53571 16.7895H8.03571ZM6.64286 18.25C5.89541 18.25 5.25 17.6183 5.25 16.7895H3.75C3.75 18.4024 5.02337 19.75 6.64286 19.75V18.25ZM5.25 16.7895C5.25 15.9607 5.89541 15.3289 6.64286 15.3289V13.8289C5.02337 13.8289 3.75 15.1766 3.75 16.7895H5.25ZM6.64286 15.3289C7.3903 15.3289 8.03571 15.9607 8.03571 16.7895H9.53571C9.53571 15.1766 8.26235 13.8289 6.64286 13.8289V15.3289ZM15.2143 16.0395H8.78571V17.5395H15.2143V16.0395ZM4.5 16.0395H2.71429V17.5395H4.5V16.0395ZM2.71429 16.0395C2.73141 16.0395 2.74294 16.0467 2.74772 16.0516L1.6707 17.0957C1.94338 17.377 2.31828 17.5395 2.71429 17.5395V16.0395ZM2.74772 16.0516C2.74988 16.0539 2.75042 16.0553 2.75036 16.0551C2.7503 16.055 2.75 16.0541 2.75 16.0526H1.25C1.25 16.4396 1.39879 16.8152 1.6707 17.0957L2.74772 16.0516ZM2.75 16.0526V5.73684H1.25V16.0526H2.75ZM2.75 5.73684C2.75 5.73537 2.75029 5.73449 2.75036 5.73433C2.75042 5.73418 2.74988 5.73561 2.74772 5.73784L1.6707 4.69379C1.39879 4.97429 1.25 5.3499 1.25 5.73684H2.75ZM2.74772 5.73784C2.74295 5.74276 2.73142 5.75 2.71429 5.75V4.25C2.31828 4.25 1.94338 4.4125 1.6707 4.69379L2.74772 5.73784ZM2.71429 5.75H16.2857V4.25H2.71429V5.75ZM15.5357 5V14.8737H17.0357V5H15.5357ZM16.2857 10.9079L22 10.9079L22 9.40791L16.2857 9.40789L16.2857 10.9079ZM21.25 10.1579V16.0526H22.75V10.1579H21.25ZM21.25 16.0526C21.25 16.0541 21.2497 16.055 21.2496 16.0551C21.2496 16.0553 21.2501 16.0539 21.2523 16.0516L22.3293 17.0957C22.6012 16.8152 22.75 16.4396 22.75 16.0526H21.25ZM21.2523 16.0516C21.2571 16.0467 21.2686 16.0395 21.2857 16.0395V17.5395C21.6817 17.5395 22.0566 17.377 22.3293 17.0957L21.2523 16.0516ZM21.2857 16.0395H19.5V17.5395H21.2857V16.0395Z" fill="currentColor"/>
</svg>
