<svg width="24" height="24" viewBox="0 0 24 24" fill="none" xmlns="http://www.w3.org/2000/svg">
<path d="M16.2857 5.4737C15.7334 5.4737 15.2857 5.92141 15.2857 6.4737C15.2857 7.02598 15.7334 7.4737 16.2857 7.4737V5.4737ZM20.0893 6.4737V7.47372L20.096 7.47368L20.0893 6.4737ZM20.75 6.93423L19.816 7.29151L19.8176 7.29575L20.75 6.93423ZM22 10.1579H23C23 10.0343 22.9771 9.91167 22.9324 9.79638L22 10.1579ZM2 11.3684C1.44772 11.3684 1 11.8161 1 12.3684C1 12.9207 1.44772 13.3684 2 13.3684V11.3684ZM16.2857 13.3684C16.838 13.3684 17.2857 12.9207 17.2857 12.3684C17.2857 11.8161 16.838 11.3684 16.2857 11.3684V13.3684ZM2 16.0526H1H2ZM2.71429 5V6V5ZM16.2857 5H17.2857C17.2857 4.44772 16.838 4 16.2857 4V5ZM15.2857 14.8737C15.2857 15.426 15.7334 15.8737 16.2857 15.8737C16.838 15.8737 17.2857 15.426 17.2857 14.8737H15.2857ZM16.2857 9.15789C15.7334 9.15789 15.2857 9.60561 15.2857 10.1579C15.2857 10.7102 15.7334 11.1579 16.2857 11.1579L16.2857 9.15789ZM16.2857 7.4737H20.0893V5.4737H16.2857V7.4737ZM20.096 7.47368C20.0293 7.47413 19.9669 7.45357 19.917 7.41879L21.0606 5.77803C20.7749 5.57886 20.4339 5.47136 20.0826 5.47372L20.096 7.47368ZM19.917 7.41879C19.8675 7.38431 19.8341 7.33869 19.816 7.29151L21.684 6.57694C21.5615 6.25664 21.3459 5.97689 21.0606 5.77803L19.917 7.41879ZM19.8176 7.29575L21.0676 10.5194L22.9324 9.79638L21.6824 6.5727L19.8176 7.29575ZM2 13.3684H16.2857V11.3684H2V13.3684ZM18.5 16.7895C18.5 17.4876 17.9592 18 17.3571 18V20C19.122 20 20.5 18.5331 20.5 16.7895H18.5ZM17.3571 18C16.755 18 16.2143 17.4876 16.2143 16.7895H14.2143C14.2143 18.5331 15.5923 20 17.3571 20V18ZM16.2143 16.7895C16.2143 16.0914 16.755 15.5789 17.3571 15.5789V13.5789C15.5923 13.5789 14.2143 15.0459 14.2143 16.7895H16.2143ZM17.3571 15.5789C17.9592 15.5789 18.5 16.0914 18.5 16.7895H20.5C20.5 15.0459 19.122 13.5789 17.3571 13.5789V15.5789ZM7.78571 16.7895C7.78571 17.4876 7.24496 18 6.64286 18V20C8.40769 20 9.78571 18.5331 9.78571 16.7895H7.78571ZM6.64286 18C6.04075 18 5.5 17.4876 5.5 16.7895H3.5C3.5 18.5331 4.87803 20 6.64286 20V18ZM5.5 16.7895C5.5 16.0914 6.04075 15.5789 6.64286 15.5789V13.5789C4.87803 13.5789 3.5 15.0459 3.5 16.7895H5.5ZM6.64286 15.5789C7.24496 15.5789 7.78571 16.0914 7.78571 16.7895H9.78571C9.78571 15.0459 8.40769 13.5789 6.64286 13.5789V15.5789ZM15.2143 15.7895H8.78571V17.7895H15.2143V15.7895ZM4.5 15.7895H2.71429V17.7895H4.5V15.7895ZM2.71429 15.7895C2.80027 15.7895 2.8762 15.825 2.92722 15.8776L1.4912 17.2697C1.81012 17.5987 2.24942 17.7895 2.71429 17.7895V15.7895ZM2.92722 15.8776C2.97721 15.9292 3 15.9927 3 16.0526H1C1 16.5034 1.1733 16.9418 1.4912 17.2697L2.92722 15.8776ZM3 16.0526V5.73684H1V16.0526H3ZM3 5.73684C3 5.79678 2.97721 5.86028 2.92722 5.91185L1.4912 4.51978C1.1733 4.84772 1 5.28606 1 5.73684H3ZM2.92722 5.91185C2.87621 5.96447 2.80027 6 2.71429 6V4C2.24942 4 1.81012 4.19079 1.4912 4.51978L2.92722 5.91185ZM2.71429 6H16.2857V4H2.71429V6ZM15.2857 5V14.8737H17.2857V5H15.2857ZM16.2857 11.1579L22 11.1579L22 9.15791L16.2857 9.15789L16.2857 11.1579ZM21 10.1579V16.0526H23V10.1579H21ZM21 16.0526C21 15.9927 21.0228 15.9292 21.0728 15.8776L22.5088 17.2697C22.8267 16.9417 23 16.5034 23 16.0526H21ZM21.0728 15.8776C21.1238 15.825 21.1997 15.7895 21.2857 15.7895V17.7895C21.7506 17.7895 22.1899 17.5987 22.5088 17.2697L21.0728 15.8776ZM21.2857 15.7895H19.5V17.7895H21.2857V15.7895Z" fill="currentColor"/>
</svg>
